<svg width="24" height="24" viewBox="0 0 24 24" fill="none" xmlns="http://www.w3.org/2000/svg">
<path d="M20.1188 3.88125C17.9531 1.71094 15.0656 0.515625 12 0.515625C8.93437 0.515625 6.04688 1.71094 3.88125 3.88125C1.71563 6.05156 0.515625 8.93437 0.515625 12C0.515625 15.0656 1.71094 17.9531 3.88125 20.1188C6.05156 22.2844 8.93437 23.4844 12 23.4844C15.0656 23.4844 17.9531 22.2891 20.1188 20.1188C22.2844 17.9484 23.4844 15.0656 23.4844 12C23.4844 8.93437 22.2891 6.04688 20.1188 3.88125ZM22.4437 11.4844H17.9906C17.9484 9.7125 17.7 8.00625 17.2641 6.49219C18.1125 6.05625 18.9047 5.50781 19.6312 4.86094C21.2719 6.61406 22.3172 8.92969 22.4437 11.4844ZM12.5156 12.5156H16.9641C16.9266 14.1469 16.7016 15.7078 16.3125 17.1047C15.1125 16.6219 13.8328 16.3406 12.5156 16.2797V12.5156ZM18.8906 4.14375C18.2906 4.67344 17.6344 5.12344 16.9406 5.49844C16.7625 5.00156 16.5609 4.53281 16.3359 4.09219C15.8906 3.21094 15.3844 2.48906 14.8266 1.93594C16.35 2.3625 17.7328 3.12656 18.8906 4.14375ZM12.5156 1.70625C13.5891 1.94531 14.6016 2.93437 15.4172 4.54688C15.6375 4.98281 15.8344 5.44687 16.0078 5.93906C14.9062 6.39375 13.7297 6.66094 12.5156 6.72187V1.70625ZM16.3172 6.92813C16.7016 8.31563 16.9219 9.86719 16.9594 11.4891H12.5156V7.75781C13.8375 7.69688 15.1172 7.41094 16.3172 6.92813ZM11.4844 11.4844H7.03594C7.07344 9.8625 7.29375 8.31094 7.67813 6.92344C8.87813 7.41094 10.1625 7.69219 11.4797 7.74844V11.4844H11.4844ZM11.4891 1.70625V6.72187C10.275 6.66094 9.09375 6.39375 7.99688 5.93906C8.17031 5.44687 8.36719 4.98281 8.5875 4.54688C9.40312 2.93437 10.4156 1.94531 11.4891 1.70625ZM9.17813 1.93594C8.62031 2.48906 8.11406 3.21563 7.66875 4.09219C7.44844 4.53281 7.24687 5.00156 7.06406 5.49844C6.37031 5.12344 5.71875 4.67344 5.11406 4.14375C6.27187 3.12656 7.65469 2.3625 9.17813 1.93594ZM4.37344 4.86094C5.1 5.50781 5.89219 6.05156 6.74063 6.49219C6.30469 8.01094 6.05156 9.7125 6.01406 11.4844H1.56094C1.6875 8.92969 2.73281 6.61406 4.37344 4.86094ZM1.56094 12.5156H6.01406C6.05625 14.3016 6.30937 16.0125 6.75 17.5359C5.90625 17.9719 5.11406 18.5109 4.39219 19.1578C2.7375 17.4 1.6875 15.0797 1.56094 12.5156ZM5.13281 19.875C5.73281 19.35 6.38437 18.9 7.07344 18.5297C7.25156 19.0125 7.44844 19.4766 7.66875 19.9078C8.11406 20.7891 8.62031 21.5109 9.17813 22.0687C7.66406 21.6422 6.28594 20.8828 5.13281 19.875ZM11.4891 22.2938C10.4156 22.0547 9.40312 21.0656 8.5875 19.4531C8.37187 19.0266 8.17969 18.5719 8.00625 18.0891C9.10313 17.6344 10.2797 17.3672 11.4891 17.3109V22.2938ZM7.69219 17.1047C7.30313 15.7078 7.07812 14.1469 7.04062 12.5156H11.4891V16.2797C10.1719 16.3359 8.89219 16.6172 7.69219 17.1047ZM12.5203 22.2938V17.3109C13.7297 17.3719 14.9062 17.6344 16.0031 18.0891C15.8297 18.5719 15.6375 19.0266 15.4219 19.4531C14.6062 21.0656 13.5938 22.0547 12.5203 22.2938ZM14.8312 22.0641C15.3891 21.5109 15.8953 20.7844 16.3406 19.9031C16.5609 19.4719 16.7578 19.0078 16.9359 18.525C17.625 18.8953 18.2766 19.3453 18.8766 19.8703C17.7234 20.8828 16.3453 21.6422 14.8312 22.0641ZM19.6219 19.1578C18.9 18.5156 18.1078 17.9719 17.2641 17.5359C17.7047 16.0125 17.9578 14.2969 18 12.5156H22.4531C22.3219 15.0797 21.2719 17.4 19.6219 19.1578Z" fill="white"/>
</svg>
